<svg width="20" height="16" viewBox="0 0 20 16" fill="none" xmlns="http://www.w3.org/2000/svg">
<path d="M2.53792 0.558615C1.22152 0.82424 0.244956 1.84377 0.0418309 3.15627C0.00667461 3.37111 -0.00113789 4.69924 0.00667461 8.1758C0.0222996 13.3164 0.0066746 12.9453 0.233237 13.5547C0.49105 14.2461 1.25277 15.0078 1.94417 15.2656C2.55746 15.4961 1.95199 15.4805 9.99886 15.4805C18.0457 15.4805 17.4403 15.4961 18.0535 15.2656C18.7489 15.0078 19.5067 14.25 19.7645 13.5547C19.991 12.9492 19.9793 13.2969 19.9793 8.00002C19.9793 3.57815 19.9715 3.11721 19.9129 2.90236C19.7996 2.4883 19.6864 2.23049 19.495 1.93752C19.0496 1.25783 18.4754 0.847677 17.616 0.585958C17.4207 0.523458 16.8035 0.519552 10.0965 0.51174C4.17855 0.507833 2.74496 0.515646 2.53792 0.558615ZM17.3153 1.80861C17.991 1.9844 18.5145 2.50393 18.6903 3.1758C18.741 3.37893 18.7489 4.00002 18.7489 7.96487C18.7489 10.8985 18.7332 12.5938 18.7098 12.7305C18.6121 13.2422 18.2254 13.7696 17.7762 14.0117C17.2957 14.2656 17.8075 14.25 9.99886 14.25C3.83871 14.25 2.87777 14.2422 2.68246 14.1914C2.00667 14.0156 1.48324 13.4961 1.30746 12.8242C1.22152 12.4805 1.21761 3.52346 1.30746 3.18361C1.48324 2.51565 1.99886 1.9883 2.65902 1.81252C2.98324 1.72658 16.9832 1.72268 17.3153 1.80861Z" fill="white"/>
<path d="M2.8693 3.0548C2.70915 3.12512 2.54508 3.32433 2.51383 3.4884C2.45133 3.83996 2.37711 3.75402 4.58024 5.95715L6.6193 8.00011L4.58024 10.0392C2.37321 12.254 2.44743 12.1603 2.51774 12.5196C2.5529 12.7111 2.78727 12.9454 2.97868 12.9806C3.33805 13.0509 3.2443 13.1251 5.45524 10.9181L7.49821 8.87902L8.59977 9.98058C9.5529 10.9298 9.72477 11.0821 9.85368 11.1056C10.2013 11.172 10.2013 11.1681 11.3966 9.98058L12.4982 8.87902L14.5412 10.9181C16.7521 13.1251 16.6584 13.0509 17.0177 12.9806C17.2091 12.9454 17.4435 12.7111 17.4787 12.5196C17.549 12.1603 17.6232 12.254 15.4162 10.0392L13.3771 8.00011L15.4162 5.95715C17.6232 3.74621 17.549 3.83996 17.4787 3.48058C17.4435 3.28918 17.2091 3.0548 17.0177 3.01965C16.6506 2.94933 16.8654 2.76183 13.2873 6.33215L9.99821 9.62121L6.72477 6.35168C4.88883 4.51574 3.40836 3.06262 3.34586 3.03918C3.19743 2.98449 3.01383 2.9923 2.8693 3.0548Z" fill="white"/>
</svg>
